#!OML:ASF F:\VICON\USERDATA\INSTALL\rory3\rory3.ASF
:FULLY-SPECIFIED
:DEGREES
68
root 0.5750417226130856 17.902041129245518 22.590787638312996 -3.7704200231872718 -3.5379900446116404 0.1869385399471426
lfemur -9.87445317481832 -2.497885492516989 -22.699015968555162
ltibia 26.400604173917948
lfoot -9.789797019903688 -0.41972255432888317
ltoes 0.028526542309542435
rfemur -17.914310979636728 1.0031559237033236 20.214628497716213
rtibia 69.82924519537887
rfoot 0.5604250883141813 -7.821137366605541
rtoes 7.070172088997181
lowerback 10.775306148432353 1.7003010534339713 -0.5421238814295455
upperback 0.40742525310542205 2.0850953493996323 0.2359212925604286
thorax -6.0259413285788 1.0044773369595377 0.33667107425426057
lowerneck -15.744805630456854 -2.694481726859099 -1.735785175177506
upperneck 22.715165155370094 -3.455592011108506 0.6664231631324709
head 9.920664461856077 -1.7024177768064614 -0.029945770972934396
lclavicle -1.3866631486575833e-15 -1.84298949378635e-15
lhumerus -33.94147034065043 8.280530205241973 79.66250632091803
lradius 19.630904628668294
lwrist 2.660642464027409
lhand -27.880573943761767 22.729102578042326
lfingers 7.125019999999999
lthumb -1.6568750158703685 51.806064217417074
rclavicle -1.3906253304481565e-15 -1.8448703169535887e-15
rhumerus -26.426002794913714 -21.282224086786552 -78.89566448444536
rradius 24.531989166892178
rwrist 6.288066306406008
rhand -18.07599658778603 22.422263856854126
rfingers 7.125019999999999
rthumb 8.299164695182897 -7.216256125213048
69
root 0.5661488754609296 17.907388830722763 22.639062592519714 -3.889909008564996 -3.041439671258108 0.00636880547736407
lfemur -7.4491035902953735 -2.549059659767738 -22.8714994582429
ltibia 26.272217504583683
lfoot -11.044660676011183 -0.16701826942332598
ltoes 0.3447149752179204
rfemur -21.573103142794725 0.08108387846517573 20.91082145106074
rtibia 70.96262742000715
rfoot -2.4167951999066544 -8.170722517506402
rtoes 7.4824215040767745
lowerback 10.799810664102235 1.2475043401497832 -0.5748341928236627
upperback 0.5225267930529653 1.5278233555571623 0.41982958687410643
thorax -5.997341515946724 0.7420424007062855 0.630957231171516
lowerneck -15.597498662444282 -2.6189851600234606 -1.8274236831843984
upperneck 22.774087891514913 -3.2828667891915506 0.6115400606903818
head 9.908082190808203 -1.6325247646427008 -0.007437636530468167
lclavicle -1.3880309849585643e-15 -1.844259848356372e-15
lhumerus -32.42164225565811 7.401090146542735 79.87343066578232
lradius 20.50625428324399
lwrist 2.798067844465422
lhand -27.650346816151647 22.307316856388606
lfingers 7.125019999999999
lthumb -1.8162493508796707 50.8980841445572
rclavicle -1.3874435686633758e-15 -1.841986130657141e-15
rhumerus -27.231998758129087 -22.87039076899409 -78.13869352696221
rradius 24.010226685216413
rwrist 7.560552833641776
rhand -17.749223082158704 22.152179864456325
rfingers 7.125019999999999
rthumb 8.558999307299407 -7.461517050207023
70
root 0.5407207828163016 17.88569903377302 23.01034425107556 -3.8932204055215625 -1.9069002529948875 0.19781191391120423
lfemur -4.974822104601815 -2.905726677618981 -23.189643930115516
ltibia 25.800795781905308
lfoot -12.835679968549826 -0.19877281960031024
ltoes 0.8228442448935165
rfemur -24.616637849491738 -0.7269219425106481 21.360174983121762
rtibia 69.36273223931904
rfoot -5.730492087032731 -7.985366556813229
rtoes 9.700496581165703
lowerback 10.883036308482751 0.6105429242438822 -1.0525502857871765
upperback 0.6016999820036392 0.6950991998690358 0.5571144460440995
thorax -5.919658985962943 0.36783511766154 1.2176510273355463
lowerneck -15.505379578301259 -2.549279221538294 -1.8765283811822142
upperneck 22.583800119682373 -3.14422926329254 0.601416733152311
head 9.821945234134327 -1.5736422219610606 0.017227152681104252
lclavicle -1.3880204350845025e-15 -1.8442493293955492e-15
lhumerus -30.555217996598703 6.35203975069671 80.03618944083702
lradius 21.286143984949252
lwrist 3.1304668426721536
lhand -26.590032403897887 23.964685122209037
lfingers 7.125019999999999
lthumb -0.8799851029908684 52.390089455100544
rclavicle -1.3888069016249002e-15 -1.8435957370570075e-15
rhumerus -28.464354727058808 -23.612791083599685 -77.6556184218459
rradius 23.89674853579484
rwrist 6.272178937552071
rhand -17.586952544747003 22.178900127591792
rfingers 7.125019999999999
rthumb 8.702339891421394 -7.5658268312412815
71
root 0.5254415302229463 17.84267227823441 24.098345289088098 -3.909383766376177 -1.0772558587974708 0.542545114951754
lfemur -2.7036993650609107 -3.1952498313192774 -23.576745703353883
ltibia 25.522868407359066
lfoot -14.985360919993571 0.0021184479392188926
ltoes 0.4207629178410346
rfemur -27.331147060862587 -1.3435011744848273 21.47775909153156
rtibia 65.40734461556845
rfoot -8.361214877678705 -7.92257443224616
rtoes 5.520392823721766
lowerback 11.081325461314798 0.16460921467037198 -1.4228500485894284
upperback 0.6175219824907678 0.07660647924379277 0.6955986379911571
thorax -5.9804439469743755 0.0778082499841902 1.6688734659305275
lowerneck -15.348411081751122 -2.567172441171509 -2.0762897368607423
upperneck 22.296719002173045 -3.1449439656590243 0.6771447142274277
head 9.66718537223277 -1.5827317467263529 0.07638119008872551
lclavicle -1.3877444520391914e-15 -1.843993008957658e-15
lhumerus -29.189515812459085 4.7393870820519 80.48501874272101
lradius 22.60904510690522
lwrist 4.388565970502517
lhand -26.53654096754367 24.573956135311875
lfingers 7.125019999999999
lthumb -0.49576755634087855 53.202998654468246
rclavicle -1.3896672084435304e-15 -1.8438964733278568e-15
rhumerus -29.667876064447032 -23.034611665536364 -77.14770347277671
rradius 24.10581442935897
rwrist 4.535133792020999
rhand -17.61257074712792 22.134623443787877
rfingers 7.125019999999999
rthumb 8.707950847846314 -7.681355622607382
